<?xml version="1.0" encoding="UTF-8" standalone="no"?>
<!-- Created with Inkscape (http://www.inkscape.org/) -->

<svg
   xmlns:dc="http://purl.org/dc/elements/1.1/"
   xmlns:cc="http://creativecommons.org/ns#"
   xmlns:rdf="http://www.w3.org/1999/02/22-rdf-syntax-ns#"
   xmlns:svg="http://www.w3.org/2000/svg"
   xmlns="http://www.w3.org/2000/svg"
   xmlns:sodipodi="http://sodipodi.sourceforge.net/DTD/sodipodi-0.dtd"
   xmlns:inkscape="http://www.inkscape.org/namespaces/inkscape"
   id="svg3039"
   version="1.1"
   inkscape:version="0.48.3.1 r9886"
   width="591"
   height="379"
   sodipodi:docname="Seextwood-design-elements-free-vectors.jpg">
  <metadata
     id="metadata3045">
    <rdf:RDF>
      <cc:Work
         rdf:about="">
        <dc:format>image/svg+xml</dc:format>
        <dc:type
           rdf:resource="http://purl.org/dc/dcmitype/StillImage" />
        <dc:title></dc:title>
      </cc:Work>
    </rdf:RDF>
  </metadata>
  <defs
     id="defs3043" />
  <sodipodi:namedview
     pagecolor="#ffffff"
     bordercolor="#666666"
     borderopacity="1"
     objecttolerance="10"
     gridtolerance="10"
     guidetolerance="10"
     inkscape:pageopacity="0"
     inkscape:pageshadow="2"
     inkscape:window-width="1920"
     inkscape:window-height="1150"
     id="namedview3041"
     showgrid="false"
     inkscape:zoom="3.5485939"
     inkscape:cx="184.89468"
     inkscape:cy="324.56385"
     inkscape:window-x="0"
     inkscape:window-y="0"
     inkscape:window-maximized="1"
     inkscape:current-layer="layer1" />
  <path
     sodipodi:type="arc"
     style="stroke:none;fill:none"
     id="path3049"
     sodipodi:cx="56.341877"
     sodipodi:cy="56.292061"
     sodipodi:rx="37.312172"
     sodipodi:ry="31.483702"
     d="m 93.654049,56.292061 a 37.312172,31.483702 0 1 1 -74.624344,0 37.312172,31.483702 0 1 1 74.624344,0 z" />
  <g
     inkscape:groupmode="layer"
     id="layer1"
     inkscape:label="1"
     style="display:inline">
    <path
       style="opacity:0.88399998999999985;fill:#1886ff;stroke:#000000;stroke-width:0;stroke-linecap:butt;stroke-linejoin:miter;stroke-miterlimit:4;stroke-opacity:1;stroke-dasharray:none;fill-opacity:1"
       d="m 88.17429,21.121976 c -1.828292,-0.08034 -6.675341,8.966877 -7.970557,13.251052 -1.295216,4.284175 -1.806767,5.50826 -2.665155,8.468717 -0.804295,2.773896 -1.771422,8.920304 -2.042456,13.475223 -0.280427,4.712778 -0.448343,8.518534 0.99632,9.365405 1.440824,0.84462 3.761107,0.348713 4.906875,-0.921595 2.258013,-2.503448 4.08491,-5.280494 5.380126,-7.472398 1.295215,-2.191903 3.040276,-6.772276 3.83583,-8.941969 0.821964,-2.241719 1.212168,-3.329088 1.419756,-6.027733 0.199264,-2.590431 0.298894,-7.57203 0.09963,-10.162461 -0.291466,-3.269175 -0.430271,-3.443502 -0.87178,-5.604299 -0.304298,-1.450404 -1.260297,-5.349604 -3.088589,-5.429942 z"
       id="path3843"
       inkscape:connector-curvature="0"
       sodipodi:nodetypes="zssssssssccz" />
  </g>
  <g
     inkscape:groupmode="layer"
     id="layer2"
     inkscape:label="11">
    <path
       style="opacity:1;fill:#1886ff;stroke:#000000;stroke-width:0;stroke-linecap:butt;stroke-linejoin:miter;stroke-opacity:1;fill-opacity:1;stroke-miterlimit:4;stroke-dasharray:none"
       d="m 18.704656,28.692341 c 2.91865,-1.527517 4.153393,-1.615741 7.156984,-2.095949 7.967283,-1.273795 14.861681,0.402206 14.861681,0.402206 0,0 5.860248,1.515904 7.971457,3.044751 4.591074,3.32466 4.305103,3.705676 6.57481,6.61955 11.625822,14.925357 13.350683,24.110936 13.350683,24.110936 0,0 1.05529,4.159667 0.398529,6.476078 -0.360381,1.271071 -6.391322,0.726984 -7.771293,0.298896 C 53.659595,65.194923 46.025152,60.581885 43.413384,58.98046 39.856605,56.799594 34.004449,52.431831 30.162333,49.017264 26.739046,45.974918 22.98883,43.437873 19.900239,39.253331 18.716855,37.650036 16.89215,34.770115 16.705247,33.318257 c -0.367948,-2.858211 1.999412,-4.625916 1.999409,-4.625916 z"
       id="path3821"
       inkscape:connector-curvature="0"
       sodipodi:nodetypes="cscsscssssssc" />
  </g>
  <g
     inkscape:groupmode="layer"
     id="layer3"
     inkscape:label="4">
    <path
       style="fill:#1886ff;fill-opacity:1;stroke:#000000;stroke-width:0;stroke-linecap:butt;stroke-linejoin:miter;stroke-miterlimit:4;stroke-opacity:1;stroke-dasharray:none"
       d="m 80.054285,72.133543 c 0,0 1.932452,-1.901231 3.238039,-2.540615 2.081974,-1.048324 4.212898,-1.55937 7.771293,-1.594111 2.890858,-0.03283 5.848341,0.553843 8.468717,1.793375 3.050266,1.753039 4.909946,4.692818 5.280486,7.472397 0.23328,1.831083 0.0996,2.789696 -1.44465,4.234359 -1.59246,1.202636 -3.820218,1.246376 -6.974242,1.145763 -2.590431,-0.04982 -4.663529,-0.72604 -6.82479,-1.743559 C 88.224717,80.2682 85.309466,79.31387 82.943612,77.264585 81.23368,75.632697 78.854562,74.430142 80.054285,72.133543 z"
       id="path3846"
       inkscape:connector-curvature="0"
       sodipodi:nodetypes="cccccccscc" />
  </g>
  <g
     inkscape:groupmode="layer"
     id="layer4"
     inkscape:label="6">
    <path
       style="fill:#1886ff;stroke:#000000;stroke-width:0;stroke-linecap:butt;stroke-linejoin:miter;stroke-opacity:1;fill-opacity:1;stroke-miterlimit:4;stroke-dasharray:none"
       d="m 75.321767,78.908517 c 1.860909,-0.08071 4.05843,2.409019 6.276813,6.226998 2.046464,3.522097 3.036962,5.714395 3.337671,9.315589 0.236021,2.826519 -0.803734,5.42027 -2.042455,6.924426 -1.394848,1.69373 -4.433623,3.4373 -6.774974,3.98528 -2.341351,0.54797 -5.629206,-1e-5 -6.774973,-1.09596 -1.145768,-1.09595 -1.992639,-2.83951 -1.893008,-5.380124 0.09963,-2.540615 0.560336,-6.548762 1.345032,-9.365405 0.971974,-3.488873 2.145983,-5.617794 2.540616,-6.426262 0.310576,-0.636264 2.124369,-4.103832 3.985278,-4.184542 z"
       id="path3849"
       inkscape:connector-curvature="0"
       sodipodi:nodetypes="zssssssssz" />
  </g>
  <g
     inkscape:groupmode="layer"
     id="layer5"
     inkscape:label="8">
    <path
       style="fill:#1886ff;stroke:#000000;stroke-width:0;stroke-linecap:butt;stroke-linejoin:miter;stroke-opacity:1;fill-opacity:1;stroke-miterlimit:4;stroke-dasharray:none"
       d="m 67.151945,76.069006 c 1.042399,1.875953 -0.432016,5.252594 -3.038775,8.717797 -2.021515,2.687229 -11.886064,12.082384 -18.282465,16.389457 -4.260827,2.86907 -10.863323,6.67702 -13.001972,8.07019 -1.904125,1.2404 -6.483914,3.443 -8.817429,2.83951 -2.889327,-0.74724 -3.786015,-3.03877 -4.234359,-5.67902 -0.448344,-2.64025 -0.175378,-5.16585 0.547976,-6.874606 1.359529,-3.211567 5.272106,-8.440178 8.269453,-11.009333 3.138407,-2.690063 8.377158,-5.712117 12.105284,-7.522213 3.693686,-1.793375 5.824401,-2.87599 10.013013,-4.084911 4.292069,-1.238781 8.10394,-2.048716 10.262093,-2.092271 3.794654,-0.07658 5.134782,-0.630553 6.177181,1.2454 z"
       id="path3854"
       inkscape:connector-curvature="0"
       sodipodi:nodetypes="zssssssssssz" />
  </g>
</svg>
